<mxfile host="app.diagrams.net" agent="Mozilla/5.0 (Macintosh; Intel Mac OS X 10_15_7) AppleWebKit/537.36 (KHTML, like Gecko) Chrome/127.0.0.0 Safari/537.36" version="24.7.5">
  <diagram name="第 1 页" id="_HPMtMyXLybDMfKPBtLN">
    <mxGraphModel dx="1811" dy="577" grid="1" gridSize="10" guides="1" tooltips="1" connect="1" arrows="1" fold="1" page="1" pageScale="1" pageWidth="827" pageHeight="1169" math="0" shadow="0">
      <root>
        <mxCell id="0" />
        <mxCell id="1" parent="0" />
        <mxCell id="lwfYYLxLNdQcmLYIgolU-8" value="" style="edgeStyle=orthogonalEdgeStyle;rounded=0;orthogonalLoop=1;jettySize=auto;html=1;" edge="1" parent="1" source="lwfYYLxLNdQcmLYIgolU-1" target="lwfYYLxLNdQcmLYIgolU-4">
          <mxGeometry relative="1" as="geometry" />
        </mxCell>
        <mxCell id="lwfYYLxLNdQcmLYIgolU-1" value="读取comment_url" style="rounded=1;whiteSpace=wrap;html=1;fillColor=#dae8fc;strokeColor=#6c8ebf;fontSize=14;" vertex="1" parent="1">
          <mxGeometry x="100" y="130" width="120" height="60" as="geometry" />
        </mxCell>
        <mxCell id="lwfYYLxLNdQcmLYIgolU-10" style="edgeStyle=orthogonalEdgeStyle;rounded=0;orthogonalLoop=1;jettySize=auto;html=1;exitX=1;exitY=0.5;exitDx=0;exitDy=0;entryX=1;entryY=0.5;entryDx=0;entryDy=0;" edge="1" parent="1" source="lwfYYLxLNdQcmLYIgolU-3" target="lwfYYLxLNdQcmLYIgolU-4">
          <mxGeometry relative="1" as="geometry">
            <Array as="points">
              <mxPoint x="490" y="270" />
              <mxPoint x="490" y="160" />
            </Array>
          </mxGeometry>
        </mxCell>
        <mxCell id="lwfYYLxLNdQcmLYIgolU-19" value="还有下一页" style="edgeLabel;html=1;align=center;verticalAlign=middle;resizable=0;points=[];" vertex="1" connectable="0" parent="lwfYYLxLNdQcmLYIgolU-10">
          <mxGeometry x="0.0763" y="-3" relative="1" as="geometry">
            <mxPoint as="offset" />
          </mxGeometry>
        </mxCell>
        <mxCell id="lwfYYLxLNdQcmLYIgolU-11" value="" style="edgeStyle=orthogonalEdgeStyle;rounded=0;orthogonalLoop=1;jettySize=auto;html=1;" edge="1" parent="1" source="lwfYYLxLNdQcmLYIgolU-3" target="lwfYYLxLNdQcmLYIgolU-5">
          <mxGeometry relative="1" as="geometry" />
        </mxCell>
        <mxCell id="lwfYYLxLNdQcmLYIgolU-18" value="无下一页" style="edgeLabel;html=1;align=center;verticalAlign=middle;resizable=0;points=[];" vertex="1" connectable="0" parent="lwfYYLxLNdQcmLYIgolU-11">
          <mxGeometry x="-0.45" y="1" relative="1" as="geometry">
            <mxPoint as="offset" />
          </mxGeometry>
        </mxCell>
        <mxCell id="lwfYYLxLNdQcmLYIgolU-3" value="爬取下一页？" style="rhombus;whiteSpace=wrap;html=1;" vertex="1" parent="1">
          <mxGeometry x="294" y="230" width="120" height="80" as="geometry" />
        </mxCell>
        <mxCell id="lwfYYLxLNdQcmLYIgolU-9" value="" style="edgeStyle=orthogonalEdgeStyle;rounded=0;orthogonalLoop=1;jettySize=auto;html=1;" edge="1" parent="1" source="lwfYYLxLNdQcmLYIgolU-4" target="lwfYYLxLNdQcmLYIgolU-3">
          <mxGeometry relative="1" as="geometry" />
        </mxCell>
        <mxCell id="lwfYYLxLNdQcmLYIgolU-4" value="爬取评论页面" style="rounded=1;whiteSpace=wrap;html=1;fillColor=#dae8fc;strokeColor=#6c8ebf;fontSize=14;" vertex="1" parent="1">
          <mxGeometry x="294" y="130" width="120" height="60" as="geometry" />
        </mxCell>
        <mxCell id="lwfYYLxLNdQcmLYIgolU-12" style="edgeStyle=orthogonalEdgeStyle;rounded=0;orthogonalLoop=1;jettySize=auto;html=1;exitX=0;exitY=0.5;exitDx=0;exitDy=0;" edge="1" parent="1" source="lwfYYLxLNdQcmLYIgolU-5" target="lwfYYLxLNdQcmLYIgolU-1">
          <mxGeometry relative="1" as="geometry" />
        </mxCell>
        <mxCell id="lwfYYLxLNdQcmLYIgolU-21" value="还有数据" style="edgeLabel;html=1;align=center;verticalAlign=middle;resizable=0;points=[];" vertex="1" connectable="0" parent="lwfYYLxLNdQcmLYIgolU-12">
          <mxGeometry x="0.1856" y="-2" relative="1" as="geometry">
            <mxPoint as="offset" />
          </mxGeometry>
        </mxCell>
        <mxCell id="lwfYYLxLNdQcmLYIgolU-13" style="edgeStyle=orthogonalEdgeStyle;rounded=0;orthogonalLoop=1;jettySize=auto;html=1;exitX=0.5;exitY=1;exitDx=0;exitDy=0;" edge="1" parent="1" source="lwfYYLxLNdQcmLYIgolU-5">
          <mxGeometry relative="1" as="geometry">
            <mxPoint x="354" y="470" as="targetPoint" />
          </mxGeometry>
        </mxCell>
        <mxCell id="lwfYYLxLNdQcmLYIgolU-20" value="无数据可以爬取" style="edgeLabel;html=1;align=center;verticalAlign=middle;resizable=0;points=[];" vertex="1" connectable="0" parent="lwfYYLxLNdQcmLYIgolU-13">
          <mxGeometry x="-0.5556" y="-4" relative="1" as="geometry">
            <mxPoint as="offset" />
          </mxGeometry>
        </mxCell>
        <mxCell id="lwfYYLxLNdQcmLYIgolU-5" value="是否还有景点数据" style="rhombus;whiteSpace=wrap;html=1;" vertex="1" parent="1">
          <mxGeometry x="294" y="350" width="120" height="80" as="geometry" />
        </mxCell>
        <mxCell id="lwfYYLxLNdQcmLYIgolU-7" value="" style="edgeStyle=orthogonalEdgeStyle;rounded=0;orthogonalLoop=1;jettySize=auto;html=1;" edge="1" parent="1" source="lwfYYLxLNdQcmLYIgolU-6" target="lwfYYLxLNdQcmLYIgolU-1">
          <mxGeometry relative="1" as="geometry" />
        </mxCell>
        <mxCell id="lwfYYLxLNdQcmLYIgolU-6" value="读取tb_tour" style="rounded=1;whiteSpace=wrap;html=1;fillColor=#dae8fc;strokeColor=#6c8ebf;fontSize=14;" vertex="1" parent="1">
          <mxGeometry x="100" y="20" width="120" height="60" as="geometry" />
        </mxCell>
        <mxCell id="lwfYYLxLNdQcmLYIgolU-14" value="结束" style="ellipse;whiteSpace=wrap;html=1;aspect=fixed;" vertex="1" parent="1">
          <mxGeometry x="314" y="470" width="80" height="80" as="geometry" />
        </mxCell>
        <mxCell id="lwfYYLxLNdQcmLYIgolU-16" value="" style="edgeStyle=orthogonalEdgeStyle;rounded=0;orthogonalLoop=1;jettySize=auto;html=1;" edge="1" parent="1" source="lwfYYLxLNdQcmLYIgolU-15" target="lwfYYLxLNdQcmLYIgolU-6">
          <mxGeometry relative="1" as="geometry" />
        </mxCell>
        <mxCell id="lwfYYLxLNdQcmLYIgolU-15" value="开始" style="ellipse;whiteSpace=wrap;html=1;aspect=fixed;" vertex="1" parent="1">
          <mxGeometry x="-40" y="10" width="80" height="80" as="geometry" />
        </mxCell>
        <mxCell id="lwfYYLxLNdQcmLYIgolU-23" value="" style="curved=1;endArrow=classic;html=1;rounded=0;" edge="1" parent="1">
          <mxGeometry width="50" height="50" relative="1" as="geometry">
            <mxPoint x="410" y="285" as="sourcePoint" />
            <mxPoint x="610" y="300" as="targetPoint" />
            <Array as="points">
              <mxPoint x="540" y="330" />
              <mxPoint x="560" y="285" />
            </Array>
          </mxGeometry>
        </mxCell>
        <mxCell id="lwfYYLxLNdQcmLYIgolU-24" value="pipeline" style="text;html=1;align=center;verticalAlign=middle;whiteSpace=wrap;rounded=0;fontSize=15;" vertex="1" parent="1">
          <mxGeometry x="630" y="290" width="60" height="30" as="geometry" />
        </mxCell>
      </root>
    </mxGraphModel>
  </diagram>
</mxfile>
